<?xml version="1.0" encoding="utf-8"?>
<!-- Generator: Adobe Illustrator 15.1.0, SVG Export Plug-In . SVG Version: 6.00 Build 0)  -->
<!DOCTYPE svg PUBLIC "-//W3C//DTD SVG 1.1//EN" "http://www.w3.org/Graphics/SVG/1.1/DTD/svg11.dtd">
<svg version="1.1" id="Layer_1" xmlns="http://www.w3.org/2000/svg" xmlns:xlink="http://www.w3.org/1999/xlink" x="0px" y="0px"
	 width="220px" height="180px" viewBox="0 0 220 180" enable-background="new 0 0 220 180" xml:space="preserve">
<g>
	<path fill="none" stroke="#71BCBA" stroke-width="3" stroke-miterlimit="10" d="M195.48,10.002H78.155
		c-8.006,0-8.006,8.001-8.006,8.001v18.671H35.485c-18.673,0-18.673,18.658-18.673,18.658v69.332
		c0,18.666,18.673,18.666,18.673,18.666h34.664v18.664c0,8.004,8.006,8.004,8.006,8.004H195.48c8,0,8-8.004,8-8.004V18.003
		C203.48,10.002,195.48,10.002,195.48,10.002 M70.149,116.664c0,0,0,8-8,8H43.48c0,0-7.995,0-7.995-8v-53.33
		c0,0,0-8.002,7.995-8.002h18.669c0,0,8,0,8,8.002V116.664z"/>
	<g enable-background="new    ">
		<path fill="#71BCBA" d="M155.875,79.947l-24.35,52.17c-0.359,0.676-1.082,1.127-1.895,1.127c-0.181,0-0.404-0.045-0.631-0.09
			c-0.992-0.316-1.578-1.264-1.354-2.211l8.883-36.434l-18.307,4.555c-0.181,0.047-0.359,0.047-0.541,0.047
			c-0.496,0-1.037-0.182-1.396-0.496c-0.541-0.451-0.723-1.127-0.587-1.76l9.063-37.197c0.225-0.857,1.035-1.443,1.982-1.443h14.789
			c1.128,0,2.027,0.855,2.027,1.895c0,0.271-0.09,0.54-0.226,0.812l-7.711,20.877l17.854-4.419c0.183-0.045,0.36-0.09,0.543-0.09
			c0.586,0,1.127,0.271,1.531,0.676C156.055,78.504,156.189,79.271,155.875,79.947z"/>
	</g>
</g>
</svg>
