<?xml version="1.0" encoding="utf-8"?>
<!-- Generator: Adobe Illustrator 15.1.0, SVG Export Plug-In . SVG Version: 6.00 Build 0)  -->
<!DOCTYPE svg PUBLIC "-//W3C//DTD SVG 1.1//EN" "http://www.w3.org/Graphics/SVG/1.1/DTD/svg11.dtd">
<svg version="1.1" id="Layer_1" xmlns="http://www.w3.org/2000/svg" xmlns:xlink="http://www.w3.org/1999/xlink" x="0px" y="0px"
	 width="220px" height="180px" viewBox="0 52.695 220 180" enable-background="new 0 52.695 220 180" xml:space="preserve">
<path fill="#FFFFFF" d="M195.48,62.697H78.155c-8.006,0-8.006,8.001-8.006,8.001v18.671H35.485
	c-18.673,0-18.673,18.658-18.673,18.658v69.333c0,18.665,18.673,18.665,18.673,18.665h34.664v18.664
	c0,8.004,8.006,8.004,8.006,8.004H195.48c8,0,8-8.004,8-8.004V70.698C203.48,62.697,195.48,62.697,195.48,62.697 M70.149,169.359
	c0,0,0,8.001-8,8.001H43.48c0,0-7.995,0-7.995-8.001v-53.33c0,0,0-8.002,7.995-8.002h18.669c0,0,8,0,8,8.002V169.359z
	 M137.279,116.828c0,0,14.354-17.73,32.84-3.259c11.951,12.688,4.377,30.037,4.377,30.037s-9.266,21.147-37.695,37.02
	c-29.219-17.341-37.804-39.703-37.804-39.703s-9.573-20.101,10.688-30.628C125.191,103.629,137.279,116.828,137.279,116.828z"/>
</svg>
